<svg xmlns="http://www.w3.org/2000/svg" viewBox="0 0 176.37 34.56"><defs><style>.cls-1{fill:#51af33;}.cls-2{fill:#254f17;}.cls-3{fill:#fff;}</style></defs><title>Asset 1</title><g id="Layer_2" data-name="Layer 2"><g id="Identity"><path class="cls-1" d="M128.92,27.91h-2.7a1.49,1.49,0,0,1-1.52-1.51h-.05c-.71,1.38-2.47,2-4.12,2-4.47,0-7.09-3.52-7.09-7.56,0-4.63,3.33-7.54,7.09-7.54a4.67,4.67,0,0,1,4.12,2h.05a1.48,1.48,0,0,1,1.5-1.51h2.72Zm-7.75-3.48a3.48,3.48,0,0,0,3.53-3.61,3.52,3.52,0,1,0-7,.05A3.52,3.52,0,0,0,121.16,24.43Z"/><path class="cls-1" d="M133.71,9.07H135V14.9a5.49,5.49,0,0,1,4.1-1.6c2.95,0,6.94,2.11,6.94,7.45,0,5.08-3.53,7.63-7.12,7.63a4.69,4.69,0,0,1-4-2h0v1.51H130.7V12A3,3,0,0,1,133.71,9.07Zm4.55,15.37a3.6,3.6,0,0,0,.08-7.19,3.47,3.47,0,0,0-3.51,3.56A3.43,3.43,0,0,0,138.26,24.43Z"/><path class="cls-1" d="M150.09,9.07h1.25V14.9a5.5,5.5,0,0,1,4.1-1.6c2.95,0,6.94,2.11,6.94,7.45,0,5.08-3.53,7.63-7.12,7.63a4.69,4.69,0,0,1-4-2h0v1.51h-4.13V12A3,3,0,0,1,150.09,9.07Zm4.54,15.37a3.6,3.6,0,0,0,.08-7.19,3.47,3.47,0,0,0-3.51,3.56A3.43,3.43,0,0,0,154.63,24.43Z"/><path class="cls-1" d="M167.71,27.91h-4.13V16.74a2.91,2.91,0,0,1,2.91-3h1.21Z"/><circle class="cls-1" cx="165.65" cy="10.77" r="2.21"/><path class="cls-1" d="M111.5,23.65a2.72,2.72,0,0,1-1.87-.91l-.67-.86h0l-.34-.4a5.7,5.7,0,0,0,4.66-5.92A6.54,6.54,0,0,0,111,10.42c-1.22-.94-2.5-1.36-5.8-1.36h-6V27.91h4.62V22.27l1.79,2.25.71.89a7,7,0,0,0,5.18,2.5h1.87V23.65Zm-6-5.09h-1.65V13.33h1.7c1.85,0,3.1.83,3.1,2.54C108.68,16.78,108.35,18.56,105.53,18.56Z"/><path class="cls-1" d="M175.78,23.65a3,3,0,0,1-1.28-.34,1.72,1.72,0,0,1-.88-1.77V19.93h0V17h2.75v-3.3h-2.75V9.07h-1.25a3,3,0,0,0-3,3v9.51a6.23,6.23,0,0,0,6.41,6.37h.61V23.65Z"/><path class="cls-2" d="M48.45,13.33H44.18V12a2.87,2.87,0,0,1,2.89-3H57.39v4.26H53.26V27.91h-1.8a3,3,0,0,1-3-3Z"/><path class="cls-2" d="M70.32,27.91H67.62A1.49,1.49,0,0,1,66.1,26.4H66c-.71,1.38-2.47,2-4.12,2-4.47,0-7.09-3.52-7.09-7.56,0-4.63,3.33-7.54,7.09-7.54a4.67,4.67,0,0,1,4.12,2h.05a1.48,1.48,0,0,1,1.5-1.51h2.72Zm-7.75-3.48a3.48,3.48,0,0,0,3.53-3.61,3.52,3.52,0,1,0-7,.05A3.52,3.52,0,0,0,62.57,24.43Z"/><path class="cls-2" d="M78.31,17.73c0-.28-.08-1.06-1.32-1.06-.89,0-1.19.56-1.19.94,0,.76,1,1.2,2.16,1.53,2.39.66,4.93,1.37,4.93,4.42s-2.62,4.78-5.74,4.78c-2.14,0-5.36-1-5.74-4.7h4.19A1.46,1.46,0,0,0,77.19,25c.71,0,1.47-.39,1.47-1.08,0-1.09-1-1.21-3.74-2.26-1.83-.58-3.35-1.78-3.36-3.68,0-2.8,2.54-4.66,5.47-4.66,1.86,0,5.06.73,5.41,4.44Z"/><path class="cls-2" d="M83.94,24.14v3.77H88.2V24.2h0v-3h0s.59.87,2.24,3.39c2.17,3.33,6.47,3.35,6.65,3.35h1V24.2h-1s-2.54,0-3.62-1.69L92,20.3,91.83,20l5.31-6.22h-5l-3.91,5.09h-.05V12a2.87,2.87,0,0,0-3-2.93H83.94Z"/><path class="cls-1" d="M38.4,15.74c-2-3.32-3.46-3.73-4.72-4.1-1.07-.31-2-.58-3.78-3.57a22.54,22.54,0,0,0-4.8-5.68C22.72.41,21,0,20,0a3.1,3.1,0,0,0-1.83.55l-.81.58A3,3,0,0,0,16.62,1a1.75,1.75,0,0,0-1.12.36A1.5,1.5,0,0,0,15,2.76a4.72,4.72,0,0,0,1.26,2.31c.28.33.6.69,1,1.06A14.34,14.34,0,0,0,3.45,11.34l-.31,0A3.1,3.1,0,0,0,.47,12.8a3,3,0,0,0-.33,2.53,3.35,3.35,0,0,0,.69,1.23A14.32,14.32,0,0,0,27.22,27.16a6.29,6.29,0,0,0,.73,0,3.76,3.76,0,0,0,1.75-.37,1.94,1.94,0,0,0,1.09-1.56,1.89,1.89,0,0,0-.85-1.74,5.14,5.14,0,0,0-1.2-.57q.09-.48.15-1a9.08,9.08,0,0,0,3.09.45c.45,0,.93,0,1.56-.06,3.43-.21,4.79-1.48,5.33-2.5C39.31,19.06,39.58,17.66,38.4,15.74Z"/><path class="cls-3" d="M37.54,16.31C34,10.43,32.78,14.67,29,8.61,26,3.71,21.35.22,19.1,1.24a.15.15,0,0,0,0,.28c2.23.91,7,4.89,9.09,8.9a.09.09,0,0,1-.16.1C25.47,7.28,17.56,1.14,16.2,2.22c-1.12.89,4.83,6.54,9.68,9a.22.22,0,0,1,.1.3c-.22.4-.76,1-2.24.95-2.56,0-5-3.78-10.54-3.85a11.5,11.5,0,0,0-8.87,4,.11.11,0,0,1-.14,0,2.15,2.15,0,0,0-2.8.72A2.08,2.08,0,0,0,2,16.17a.21.21,0,0,1,.09.25,13,13,0,0,0-.62,3.9A11.55,11.55,0,0,0,13,31.78,11,11,0,0,0,19.16,30c1.77-1.07,3.07-2.48,2.73-3.5-.49-1.48-2.63-1-4.8-.15a.14.14,0,0,1-.14-.23,6.65,6.65,0,0,0-4.8-11.26,6.26,6.26,0,0,0-6.21,4,.16.16,0,0,1-.31-.08,7.18,7.18,0,0,1,6.68-5.64,7.23,7.23,0,0,1,6.6,11,.21.21,0,0,0,.28.3,7.31,7.31,0,0,0,2.08-1.73.1.1,0,0,1,.15,0c3.6,3.94,8.21,4,8.33,2.48.14-1.74-4.31-.61-4.59-4.93a.1.1,0,0,1,.16-.08.94.94,0,0,0,1.53-.62.1.1,0,0,1,.16-.06c1.92,1.87,3.87,2,6.53,1.8C37.34,21.09,39.11,19,37.54,16.31Zm-3.45,0A1.18,1.18,0,0,1,33,15.41a.77.77,0,0,1,.78-.95,1.18,1.18,0,0,1,1.11.95A.77.77,0,0,1,34.08,16.36Z"/></g></g></svg>